<?xml version="1.0" encoding="UTF-8" standalone="no" ?>
<!DOCTYPE svg PUBLIC "-//W3C//DTD SVG 1.1//EN" "http://www.w3.org/Graphics/SVG/1.1/DTD/svg11.dtd">
<svg xmlns="http://www.w3.org/2000/svg" xmlns:xlink="http://www.w3.org/1999/xlink" version="1.1" width="1280" height="1024" viewBox="0 0 1280 1024" xml:space="preserve">
<desc>Created with Fabric.js 4.4.0</desc>
<defs>
</defs>
<g transform="matrix(1 0 0 1 640 512)" id="background-logo"  >
<rect style="stroke: none; stroke-width: 0; stroke-dasharray: none; stroke-linecap: butt; stroke-dashoffset: 0; stroke-linejoin: miter; stroke-miterlimit: 4; fill: rgb(0,0,0); fill-opacity: 0; fill-rule: nonzero; opacity: 1;"  paint-order="stroke"  x="-640" y="-512" rx="0" ry="0" width="1280" height="1024" />
</g>
<g transform="matrix(1.1767945879109447 0 0 1.1767945879109447 1089.9123519046832 318.8482034412955)" id="shape-27f4e53d-b236-491e-a2b3-acb2316490b5-logo"  >
<g style=""  paint-order="stroke"   >
		<g transform="matrix(1 0 0 1 -18.825 -36.275217381520754)" id="Layer_1"  >
<path style="stroke: none; stroke-width: 1; stroke-dasharray: none; stroke-linecap: butt; stroke-dashoffset: 0; stroke-linejoin: miter; stroke-miterlimit: 4; fill: rgb(12,238,247); fill-rule: nonzero; opacity: 1;"  paint-order="stroke"  transform=" translate(-31.174999999999994, -13.725000000000007)" d="M 23.86 14.46 C 22.37264543193639 16.472142823751195 21.03568720386685 18.591221615241402 19.859999999999985 20.800000000000008 C 23.794824981702902 23.226282971613486 28.03097513869879 25.12582649439339 32.46000000000001 26.450000000000006 C 32.59 25.620000000000005 32.730000000000004 24.790000000000003 32.86 24.1 C 34.47 16.39 36.62 10.100000000000001 39.43 5.23 C 40.30985088382574 3.7237380356262184 41.334716119622556 2.307012562612976 42.49 1.0000000000000053 C 40.11154846253102 1.7068202902213143 37.82040185098049 2.679635103324758 35.66 3.900000000000002 C 31.021637291300394 6.542438895556112 26.999110073001525 10.142259863796458 23.85999999999998 14.460000000000027 Z" stroke-linecap="round" />
</g>
		<g transform="matrix(1 0 0 1 0.0000745364808913962 -10.955217381520747)" id="Layer_1"  >
<path style="stroke: none; stroke-width: 1; stroke-dasharray: none; stroke-linecap: butt; stroke-dashoffset: 0; stroke-linejoin: miter; stroke-miterlimit: 4; fill: rgb(12,238,247); fill-rule: nonzero; opacity: 1;"  paint-order="stroke"  transform=" translate(-50.00007453648088, -39.045000000000016)" d="M 65.28 29.61 C 60.282294353335956 30.847337732558238 55.14836759360368 31.44875978098237 49.99999999999999 31.4 C 44.84813748354396 31.51832355576939 39.70502826443034 30.91582581347793 34.72 29.609999999999992 C 33.72792823615882 35.850905065638536 33.23303926528507 42.160739444278676 33.239999999999995 48.48000000000005 L 66.76 48.480000000000004 C 66.77223784963611 42.16053682993457 66.27731593989148 35.85028248069074 65.27999999999999 29.61000000000002 Z" stroke-linecap="round" />
</g>
		<g transform="matrix(1 0 0 1 0.00008188579653634065 10.814782618479207)" id="Layer_1"  >
<path style="stroke: none; stroke-width: 1; stroke-dasharray: none; stroke-linecap: butt; stroke-dashoffset: 0; stroke-linejoin: miter; stroke-miterlimit: 4; fill: rgb(12,238,247); fill-rule: nonzero; opacity: 1;"  paint-order="stroke"  transform=" translate(-50.00008188579653, -60.81499999999997)" d="M 34.72 70.11 C 39.53569399382255 68.88077598752189 44.49006744627136 68.2791254800671 49.459999999999994 68.32 C 54.79220987923641 68.31739538290485 60.10481127265052 68.96551932028092 65.27999999999999 70.25 C 66.27782930895845 64.00977858544935 66.77275446179632 57.699482886766646 66.76000000000002 51.37999999999994 L 33.24 51.379999999999995 C 33.232841007762865 57.652819856245955 33.72775449731672 63.9161507071541 34.71999999999999 70.11000000000004 Z" stroke-linecap="round" />
</g>
		<g transform="matrix(1 0 0 1 -27.414999999999985 -14.120217381520767)" id="Layer_1"  >
<path style="stroke: none; stroke-width: 1; stroke-dasharray: none; stroke-linecap: butt; stroke-dashoffset: 0; stroke-linejoin: miter; stroke-miterlimit: 4; fill: rgb(12,238,247); fill-rule: nonzero; opacity: 1;"  paint-order="stroke"  transform=" translate(-22.585000000000008, -35.879999999999995)" d="M 21.58 24.66 C 20.639999999999997 24.1 19.709999999999997 23.66 18.9 23.14 C 15.061834933899801 31.088493839708228 13.04616545549462 39.79345287526144 13 48.62 L 30.56 48.62 C 30.65924734982263 42.028216885096185 31.197102630086153 35.450347028954255 32.170000000000016 28.93 C 28.516694723980528 27.833948308582727 24.971800002744516 26.404609266120243 21.57999999999999 24.66 Z" stroke-linecap="round" />
</g>
		<g transform="matrix(1 0 0 1 -27.565000000000015 13.979782618479238)" id="Layer_1"  >
<path style="stroke: none; stroke-width: 1; stroke-dasharray: none; stroke-linecap: butt; stroke-dashoffset: 0; stroke-linejoin: miter; stroke-miterlimit: 4; fill: rgb(12,238,247); fill-rule: nonzero; opacity: 1;"  paint-order="stroke"  transform=" translate(-22.43499999999998, -63.980000000000004)" d="M 12.87 51.38 C 13.032697498657996 60.08720466950416 14.993737145864712 68.66675312603351 18.63000000000001 76.58000000000001 C 22.803183854930708 74.05448983158082 27.301296707139198 72.1099055170135 31.999999999999957 70.80000000000001 C 31.00319043351485 64.37491249989488 30.50836051149223 57.881941496057244 30.520000000000024 51.38000000000003 Z" stroke-linecap="round" />
</g>
		<g transform="matrix(1 0 0 1 -1.421085e-14 -35.468595325461195)" id="Layer_1"  >
<path style="stroke: none; stroke-width: 1; stroke-dasharray: none; stroke-linecap: butt; stroke-dashoffset: 0; stroke-linejoin: miter; stroke-miterlimit: 4; fill: rgb(12,238,247); fill-rule: nonzero; opacity: 1;"  paint-order="stroke"  transform=" translate(-49.99999999999998, -14.531622056059565)" d="M 35.12 27.27 C 39.98171216549302 28.5076878787184 44.98345951682357 29.10937657219163 49.99999999999999 29.06 C 55.01247096393645 29.039780970766333 60.00573599878568 28.439112663482724 64.87999999999997 27.270000000000007 C 64.76595526700686 26.430338191297633 64.5853872876076 25.601063026649218 64.33999999999999 24.790000000000003 C 62.86999999999999 17.36 60.71999999999999 11.159999999999998 58.17999999999999 6.890000000000001 C 56.56999999999999 3.8900000000000006 54.68999999999999 1.790000000000001 52.94999999999999 0.830000000000001 C 51.13885389432089 -0.27608698261130393 48.86114610567909 -0.2760869826113028 47.04999999999999 0.8300000000000027 C 45.87057165582187 1.548223649276944 44.83607512810498 2.48096642016922 44 3.5800000000000054 C 42 5.92 40.11 9.64 38.5 14.19 C 37.06962093590498 18.4658241430583 35.940195896664676 22.83649855526636 35.11999999999999 27.27000000000008 Z" stroke-linecap="round" />
</g>
		<g transform="matrix(1 0 0 1 -0.2000000000000064 35.399380516851465)" id="Layer_1"  >
<path style="stroke: none; stroke-width: 1; stroke-dasharray: none; stroke-linecap: butt; stroke-dashoffset: 0; stroke-linejoin: miter; stroke-miterlimit: 4; fill: rgb(12,238,247); fill-rule: nonzero; opacity: 1;"  paint-order="stroke"  transform=" translate(-49.79999999999998, -85.39959789837224)" d="M 64.75 72.73 C 59.71063922110785 71.44591623897801 54.53038672958455 70.79754481818424 49.33 70.79999999999998 C 44.45504730651649 70.77508964788873 39.59437189873326 71.32896495333367 34.84999999999996 72.45000000000002 C 35.199366826459276 73.37970352494361 35.42464106717149 74.35140883189632 35.519999999999996 75.34 C 37 82.78 39.14 89 41.69 93.25 C 42.95612924822767 95.5983992543674 44.74562574681441 97.62398611318834 46.92 99.17 C 47.82160692747795 99.68148495765544 48.83396073943439 99.9663167081381 49.870000000000005 100 C 50.90519788620121 99.98163078782166 51.91802703150497 99.69569602911345 52.81 99.17 C 54.00463700493553 98.45698717965583 55.05317264626903 97.52382439206129 55.90000000000001 96.42 C 57.900000000000006 94.08 59.790000000000006 90.36 61.39000000000001 85.81 C 62.81379681329793 81.53373181467943 63.936540247451276 77.16305201743964 64.75 72.73000000000002 Z" stroke-linecap="round" />
</g>
		<g transform="matrix(1 0 0 1 -26.004999999999995 39.80478261847925)" id="Layer_1"  >
<path style="stroke: none; stroke-width: 1; stroke-dasharray: none; stroke-linecap: butt; stroke-dashoffset: 0; stroke-linejoin: miter; stroke-miterlimit: 4; fill: rgb(12,238,247); fill-rule: nonzero; opacity: 1;"  paint-order="stroke"  transform=" translate(-23.994999999999997, -89.805)" d="M 21.72 87.19 C 20.085891684685173 84.99846227488744 18.60567664674057 82.69627680955145 17.290000000000013 80.3 C 15.598252081375072 81.47666893623696 13.98791982695031 82.76627111509164 12.469999999999992 84.16 C 18.551610740658752 91.30451243221198 26.54928644608244 96.56111924076595 35.52 99.31 C 35.120000000000005 99.17 34.720000000000006 98.9 34.32 98.76 C 29.429341958189568 95.7305916856209 25.154498659513607 91.80519986294782 21.719999999999988 87.19 Z" stroke-linecap="round" />
</g>
		<g transform="matrix(1 0 0 1 18.824999999999996 36.27478261847923)" id="Layer_1"  >
<path style="stroke: none; stroke-width: 1; stroke-dasharray: none; stroke-linecap: butt; stroke-dashoffset: 0; stroke-linejoin: miter; stroke-miterlimit: 4; fill: rgb(12,238,247); fill-rule: nonzero; opacity: 1;"  paint-order="stroke"  transform=" translate(-68.82499999999999, -86.27499999999999)" d="M 76.14 85.54 C 77.62444716152524 83.57483333966613 78.9614314465846 81.5025076978241 80.13999999999999 79.34 C 76.22642898310977 76.92458484459047 72.04062345051474 74.98105525086751 67.66999999999994 73.54999999999998 C 67.54 74.38 67.41 75.21 67.27 75.89999999999999 C 65.53 83.47 63.379999999999995 89.89999999999999 60.56999999999999 94.77 C 59.69014911617426 96.27626196437377 58.66528388037744 97.69298743738703 57.50999999999999 99 C 59.87967620250076 98.26897347082338 62.16827669520082 97.29723973307372 64.34000000000002 96.09999999999998 C 68.9783627086996 93.4575611044439 73.00088992699845 89.85774013620357 76.13999999999999 85.54000000000002 Z" stroke-linecap="round" />
</g>
		<g transform="matrix(1 0 0 1 -25.805000000000014 -39.945217381520756)" id="Layer_1"  >
<path style="stroke: none; stroke-width: 1; stroke-dasharray: none; stroke-linecap: butt; stroke-dashoffset: 0; stroke-linejoin: miter; stroke-miterlimit: 4; fill: rgb(12,238,247); fill-rule: nonzero; opacity: 1;"  paint-order="stroke"  transform=" translate(-24.19499999999998, -10.055000000000001)" d="M 17.43 19.28 C 21.72 11.430000000000001 27.48 5.280000000000001 34.32 1.3800000000000026 C 34.68915127370925 1.1357146106207427 35.09396482764712 0.950175065065887 35.52 0.8300000000000018 C 26.743720742844012 3.6042187390568836 18.905079061772845 8.75038217382633 12.869999999999958 15.700000000000035 C 13.706932066739876 16.300217563406008 14.511398218108328 16.944458091265393 15.279999999999992 17.629999999999995 C 16 18.18 16.76 18.73 17.43 19.28 Z" stroke-linecap="round" />
</g>
		<g transform="matrix(1 0 0 1 -41.88999999999999 16.804782618479244)" id="Layer_1"  >
<path style="stroke: none; stroke-width: 1; stroke-dasharray: none; stroke-linecap: butt; stroke-dashoffset: 0; stroke-linejoin: miter; stroke-miterlimit: 4; fill: rgb(12,238,247); fill-rule: nonzero; opacity: 1;"  paint-order="stroke"  transform=" translate(-8.11, -66.805)" d="M 16.22 78.1 C 12.373852916163802 69.71078598382502 10.329859238891228 60.60820080770452 10.219999999999992 51.37999999999998 L 0 51.379999999999995 C 0.21336059304989355 62.58609237000703 4.075253435754481 73.41694638795579 11.000000000000021 82.23000000000003 L 13.41 80.17 Z" stroke-linecap="round" />
</g>
		<g transform="matrix(1 0 0 1 25.805 -39.875217381520784)" id="Layer_1"  >
<path style="stroke: none; stroke-width: 1; stroke-dasharray: none; stroke-linecap: butt; stroke-dashoffset: 0; stroke-linejoin: miter; stroke-miterlimit: 4; fill: rgb(12,238,247); fill-rule: nonzero; opacity: 1;"  paint-order="stroke"  transform=" translate(-75.80499999999999, -10.12499999999998)" d="M 78.28 12.81 C 79.82244942234793 14.911359327178014 81.2126613497355 17.120325875262623 82.43999999999997 19.419999999999966 C 84.17999999999999 18.180000000000003 85.66 16.94 87.13 15.700000000000001 C 81.0949209382271 8.750382173826317 73.25627925715597 3.6042187390568703 64.47999999999999 0.8299999999999965 C 64.90603517235289 0.9501750650658849 65.31084872629076 1.13571461062074 65.68 1.38 C 70.65097886312542 4.2424695377750785 74.94814955926026 8.140617240697406 78.28 12.809999999999995 Z" stroke-linecap="round" />
</g>
		<g transform="matrix(1 0 0 1 -18.899999999999995 36.13978261847922)" id="Layer_1"  >
<path style="stroke: none; stroke-width: 1; stroke-dasharray: none; stroke-linecap: butt; stroke-dashoffset: 0; stroke-linejoin: miter; stroke-miterlimit: 4; fill: rgb(12,238,247); fill-rule: nonzero; opacity: 1;"  paint-order="stroke"  transform=" translate(-31.099999999999998, -86.13999999999999)" d="M 35.79 86.91 C 34.30744153002345 82.46448600550582 33.187117398832335 77.90627170456997 32.440000000000005 73.27999999999999 C 28.88432096416036 74.34787276730913 25.430704909128465 75.7299884947589 22.119999999999976 77.41 C 21.28617948572171 77.81458442241998 20.480971654555187 78.27565778632447 19.709999999999994 78.78999999999999 C 23.709999999999997 86.49999999999999 29.22 92.55999999999999 35.66 96.13999999999999 C 37.81032779360109 97.3707066478567 40.104336339199776 98.33130173430067 42.49 99 C 42.230000000000004 98.72 42.09 98.58 41.82 98.31 C 39.213119235947815 94.8570297071092 37.17723680803315 91.0080977538377 35.79 86.91 Z" stroke-linecap="round" />
</g>
		<g transform="matrix(1 0 0 1 41.80000000000001 -17.075217381520766)" id="Layer_1"  >
<path style="stroke: none; stroke-width: 1; stroke-dasharray: none; stroke-linecap: butt; stroke-dashoffset: 0; stroke-linejoin: miter; stroke-miterlimit: 4; fill: rgb(12,238,247); fill-rule: nonzero; opacity: 1;"  paint-order="stroke"  transform=" translate(-91.80000000000001, -32.925)" d="M 83.65 21.49 C 87.60954265579689 29.952306860600412 89.75548147379449 39.14918750916162 89.95 48.490000000000016 L 99.95 48.489999999999995 C 99.74954508612818 37.16086551658618 95.80827341247401 26.21601384835658 88.73999999999997 17.359999999999978 C 87.90823540622216 18.165279610084305 87.01190498956774 18.901073235696142 86.05999999999999 19.560000000000002 C 85.28938370642466 20.243155218074566 84.48504328065002 20.887295061122316 83.65 21.49 Z" stroke-linecap="round" />
</g>
		<g transform="matrix(1 0 0 1 41.755 17.14978261847923)" id="Layer_1"  >
<path style="stroke: none; stroke-width: 1; stroke-dasharray: none; stroke-linecap: butt; stroke-dashoffset: 0; stroke-linejoin: miter; stroke-miterlimit: 4; fill: rgb(12,238,247); fill-rule: nonzero; opacity: 1;"  paint-order="stroke"  transform=" translate(-91.755, -67.14999999999999)" d="M 83.51 78.65 C 85.32630412401166 79.87649808720101 87.03270953158646 81.258351878041 88.60999999999999 82.77999999999999 C 95.73152940762422 73.89074568922676 99.73359980881106 62.90701252495103 100 51.519999999999996 L 89.81 51.52 C 89.76507400925433 60.920647939477774 87.61223574295286 70.19152129896327 83.50999999999999 78.65 Z" stroke-linecap="round" />
</g>
		<g transform="matrix(1 0 0 1 -41.754999999999995 -16.945217381520763)" id="Layer_1"  >
<path style="stroke: none; stroke-width: 1; stroke-dasharray: none; stroke-linecap: butt; stroke-dashoffset: 0; stroke-linejoin: miter; stroke-miterlimit: 4; fill: rgb(12,238,247); fill-rule: nonzero; opacity: 1;"  paint-order="stroke"  transform=" translate(-8.244999999999996, -33.055)" d="M 16.49 21.63 C 14.629824111547125 20.404393835414076 12.879883665679166 19.019163731036766 11.259999999999998 17.490000000000002 C 4.1757585692014585 26.34063430459583 0.21693848275609362 37.285400671473624 -7.105427357601002e-15 48.62 L 10.19 48.62 C 10.251073736956029 39.26610358200608 12.403622602480567 30.044310902560454 16.489999999999988 21.630000000000003 Z" stroke-linecap="round" />
</g>
		<g transform="matrix(1 0 0 1 27.500000000000007 14.189782618479235)" id="Layer_1"  >
<path style="stroke: none; stroke-width: 1; stroke-dasharray: none; stroke-linecap: butt; stroke-dashoffset: 0; stroke-linejoin: miter; stroke-miterlimit: 4; fill: rgb(12,238,247); fill-rule: nonzero; opacity: 1;"  paint-order="stroke"  transform=" translate(-77.5, -64.19)" d="M 68 71.07 C 71.45992932776363 72.12181008602263 74.80909783546383 73.50836584821052 78 75.21 C 79.07 75.75999999999999 80.14 76.44999999999999 81.08 77 C 84.76909464264367 68.94940962772267 86.78320630650535 60.232933136483496 87 51.379999999999995 L 69.57 51.38 C 69.55378295103374 57.97394108980598 69.02889229048847 64.5568054886191 68.00000000000001 71.07 Z" stroke-linecap="round" />
</g>
		<g transform="matrix(1 0 0 1 25.740000000000016 39.94478261847924)" id="Layer_1"  >
<path style="stroke: none; stroke-width: 1; stroke-dasharray: none; stroke-linecap: butt; stroke-dashoffset: 0; stroke-linejoin: miter; stroke-miterlimit: 4; fill: rgb(12,238,247); fill-rule: nonzero; opacity: 1;"  paint-order="stroke"  transform=" translate(-75.74000000000001, -89.945)" d="M 82.44 80.72 C 78.14999999999999 88.57 72.44 94.72 65.67999999999999 98.62 C 65.31084872629074 98.86428538937926 64.90603517235287 99.04982493493412 64.47999999999999 99.17 C 73.1601787744213 96.41103883137009 80.93853267830654 91.36823390256349 87.00000000000001 84.56999999999998 L 84.18 82.08999999999999 C 83.65 81.68 83 81.13 82.44 80.72 Z" stroke-linecap="round" />
</g>
		<g transform="matrix(1 0 0 1 18.770000000000017 -36.275217381520775)" id="Layer_1"  >
<path style="stroke: none; stroke-width: 1; stroke-dasharray: none; stroke-linecap: butt; stroke-dashoffset: 0; stroke-linejoin: miter; stroke-miterlimit: 4; fill: rgb(12,238,247); fill-rule: nonzero; opacity: 1;"  paint-order="stroke"  transform=" translate(-68.77000000000001, -13.724999999999987)" d="M 64.08 13.09 C 65.57587650016474 17.43957401945599 66.69663536227347 21.90922727252243 67.42999999999999 26.449999999999974 C 70.83055862451886 25.36249848896713 74.14622893342398 24.025534654731203 77.35 22.450000000000014 C 78.28 21.9 79.22 21.45 80.03 20.939999999999998 C 76.03 13.359999999999998 70.51 7.439999999999998 64.21000000000001 3.8599999999999994 C 62.11674014531657 2.6071586654487433 59.862727321756964 1.6449979676307658 57.510000000000005 1 C 57.64 1.28 57.91 1.42 58.04 1.69 C 60.64677186911517 5.144613785196874 62.68572771412232 8.992974154912352 64.07999999999998 13.089999999999973 Z" stroke-linecap="round" />
</g>
		<g transform="matrix(1 0 0 1 27.615000000000002 -14.120217381520767)" id="Layer_1"  >
<path style="stroke: none; stroke-width: 1; stroke-dasharray: none; stroke-linecap: butt; stroke-dashoffset: 0; stroke-linejoin: miter; stroke-miterlimit: 4; fill: rgb(12,238,247); fill-rule: nonzero; opacity: 1;"  paint-order="stroke"  transform=" translate(-77.615, -35.879999999999995)" d="M 81.37 23.14 C 77.21090167288328 25.659095311596904 72.75293981958251 27.647877087899886 68.1 29.060000000000002 C 68.96402932246026 35.546484292695745 69.4548373383372 42.07723585089463 69.57000000000002 48.620000000000005 L 87.13 48.62 C 87.04936092110414 39.8130494503847 85.08540594732936 31.125276406672704 81.37 23.139999999999993 Z" stroke-linecap="round" />
</g>
</g>
</g>
<g transform="matrix(1.9211538461538462 0 0 1.9211538461538462 539.497763296274 448.6602375304434)" id="text-logo-path-group"  >
<g style=""  paint-order="stroke"   >
		<g transform="matrix(1 0 0 1 0 0)" id="text-logo-path-0"  >
<path style="stroke: rgb(255,255,255); stroke-width: 0; stroke-dasharray: none; stroke-linecap: butt; stroke-dashoffset: 0; stroke-linejoin: miter; stroke-miterlimit: 4; fill: rgb(12,242,255); fill-rule: nonzero; opacity: 1;"  paint-order="stroke"  transform=" translate(-272.865, 57.75)" d="M 3.15 -87.01 L 51.12 0 L 65.41 0 L 113.53 -87.01 L 99.17 -87.01 L 58.37 -12.01 L 17.58 -87.01 Z M 126.2 0 L 138.5 0 L 138.5 -87.01 L 126.2 -87.01 Z M 126.2 -103.2 L 138.5 -103.2 L 138.5 -115.5 L 126.2 -115.5 Z M 157.69 0 L 170 0 L 170 -12.3 L 157.69 -12.3 Z M 157.69 -75.88 L 170 -75.88 L 170 -88.18 L 157.69 -88.18 Z M 189.62 -18.16 C 189.62 -13.11 191.38 -8.86 194.9 -5.35 C 198.34 -1.76 202.66 0 207.71 0 L 239.58 0 L 239.58 -12.3 L 207.71 -12.3 C 204.57 -12.3 201.86 -14.94 201.86 -18.16 L 201.86 -74.71 L 239.58 -74.71 L 239.58 -87.01 L 201.86 -87.01 L 201.86 -115.5 L 189.62 -115.5 Z M 250.71 -68.85 L 250.71 -18.16 C 250.71 -13.11 252.47 -8.86 256.05 -5.35 C 259.64 -1.76 263.89 0 268.87 0 L 339.4 0 L 339.4 -12.3 L 268.87 -12.3 C 265.65 -12.3 263.01 -14.94 263.01 -18.16 L 263.01 -37.35 L 339.4 -37.35 L 339.4 -68.85 C 339.4 -73.83 337.65 -78.08 334.06 -81.67 C 330.47 -85.25 326.15 -87.01 321.09 -87.01 L 268.87 -87.01 C 263.89 -87.01 259.64 -85.25 256.05 -81.67 C 252.47 -78.08 250.71 -73.83 250.71 -68.85 Z M 263.01 -49.66 L 263.01 -68.85 C 263.01 -72.07 265.65 -74.71 268.87 -74.71 L 321.09 -74.71 C 324.32 -74.71 326.95 -72.07 326.95 -68.85 L 326.95 -49.66 Z M 351.49 -68.85 L 351.49 -18.16 C 351.49 -13.11 353.25 -8.86 356.84 -5.35 C 360.42 -1.76 364.67 0 369.65 0 L 440.19 0 L 440.19 -12.3 L 369.65 -12.3 C 366.43 -12.3 363.79 -14.94 363.79 -18.16 L 363.79 -68.85 C 363.79 -72.07 366.43 -74.71 369.65 -74.71 L 439.89 -74.71 L 439.89 -87.01 L 369.65 -87.01 C 364.67 -87.01 360.42 -85.25 356.84 -81.67 C 353.25 -78.08 351.49 -73.83 351.49 -68.85 Z M 453.96 0 L 466.26 0 L 466.26 -68.85 C 466.26 -72.07 468.97 -74.71 472.19 -74.71 L 524.41 -74.71 C 527.64 -74.71 530.27 -72.07 530.27 -68.85 L 530.27 0 L 542.58 0 L 542.58 -68.85 C 542.58 -73.83 540.82 -78.08 537.23 -81.67 C 533.64 -85.25 529.39 -87.01 524.41 -87.01 L 466.26 -87.01 L 466.26 -115.5 L 453.96 -115.5 Z" stroke-linecap="round" />
</g>
</g>
</g>
</svg>